<?xml version="1.0" standalone="no"?>
<!DOCTYPE svg PUBLIC "-//W3C//DTD SVG 20010904//EN"
 "http://www.w3.org/TR/2001/REC-SVG-20010904/DTD/svg10.dtd">
<svg version="1.0" xmlns="http://www.w3.org/2000/svg"
 width="180.000000pt" height="180.000000pt" viewBox="0 0 180.000000 180.000000"
 preserveAspectRatio="xMidYMid meet">
<metadata>
Created by potrace 1.11, written by Peter Selinger 2001-2013
</metadata>
<g transform="translate(0.000000,180.000000) scale(0.100000,-0.100000)"
fill="#000000" stroke="none">
<path d="M450 875 l0 -505 125 0 125 0 2 219 3 220 159 -220 159 -219 159 0
159 0 -54 72 c-264 358 -337 459 -337 467 0 5 81 110 180 234 99 123 180 227
180 231 0 3 -65 6 -143 6 l-144 0 -159 -199 -159 -200 -3 200 -2 199 -125 0
-125 0 0 -505z"/>
</g>
</svg>
